<?xml version="1.0" standalone="no"?>
<svg viewBox="0 0 200 200" xmlns="http://www.w3.org/2000/svg">
  <path fill="currentColor" d="M34.3,-61.5C45.8,-52.9,57.3,-46.3,64.2,-36.4C71.1,-26.5,73.3,-13.2,72.2,-0.7C71,11.9,66.3,23.8,60.6,35.6C54.8,47.4,47.9,59.3,37.6,62.7C27.4,66.2,13.7,61.2,-1,62.9C-15.7,64.7,-31.3,73,-38.7,67.9C-46.1,62.8,-45.2,44.2,-50.3,30.6C-55.3,17.1,-66.3,8.5,-65,0.7C-63.8,-7.1,-50.4,-14.2,-43,-23.7C-35.6,-33.2,-34.2,-45,-28,-56.7C-21.9,-68.4,-10.9,-80,0.3,-80.5C11.4,-80.9,22.9,-70.2,34.3,-61.5Z" transform="translate(100 100)" />
</svg>


